<svg width="70" height="70" viewBox="0 0 70 70" fill="none" xmlns="http://www.w3.org/2000/svg">
<path d="M33.8406 13.1906C32.3203 14.2734 29.4765 16.625 25.375 20.1797L23.1328 22.1266L23.1 19.8734L23.0781 17.6094H19.7859H16.4937L16.5703 22.7281L16.6468 27.8359L13.8796 30.2969C12.3593 31.6531 10.664 33.1516 10.1171 33.6219C9.01245 34.5953 8.87027 34.7922 8.85933 35.3063C8.84839 36.3781 10.0187 36.9141 10.85 36.225C11.0468 36.0609 13.2234 34.1906 15.6953 32.0578C18.1562 29.9359 21.164 27.3438 22.3671 26.3156C23.5703 25.2766 26.9062 22.4 29.7828 19.9172C34.4203 15.925 35.0328 15.4328 35.1968 15.5531C35.3062 15.6297 37.3406 17.3687 39.714 19.425C45.4671 24.3906 46.2546 25.0797 55.6718 33.1844C57.739 34.9672 59.5546 36.4547 59.7078 36.4984C60.1671 36.6188 60.725 36.4 60.9984 35.9953C61.2828 35.5797 61.3156 35.2625 61.1187 34.8359C61.0421 34.6719 59.8281 33.5234 58.4171 32.2875C48.114 23.2094 44.2531 19.8406 40.7421 16.8875C36.7062 13.4859 35.4921 12.5781 35 12.5781C34.8031 12.5781 34.3875 12.7969 33.8406 13.1906Z" fill="black"/>
<path d="M34.5625 18.2328C34.4094 18.3422 32.9656 19.5344 31.3359 20.8906C29.7172 22.2469 25.5281 25.7359 22.0391 28.6453C18.55 31.5547 15.5859 34.0484 15.4437 34.2016L15.2031 34.4641V45.8281V57.1922L15.4875 57.4109C15.7719 57.6406 15.8594 57.6406 23.2422 57.6406C30.4281 57.6406 30.7234 57.6297 30.9641 57.4328L31.2266 57.225L31.2594 51.5813L31.2922 45.9375H35.0547H38.8281V51.5156V57.1047L39.1016 57.3672L39.3641 57.6406H46.8672H54.3703L54.6328 57.3672L54.9062 57.1047V45.8609C54.8953 37.2422 54.8625 34.5625 54.7641 34.3875C54.6875 34.2672 53.2766 33.0313 51.625 31.6531C36.5531 19.0641 35.3172 18.0469 35.0766 18.0469C34.9453 18.0469 34.7047 18.1344 34.5625 18.2328Z" fill="black"/>
</svg>
